<?xml version="1.0" encoding="utf-8"?>
<!-- Generator: Adobe Illustrator 15.1.0, SVG Export Plug-In  -->
<!DOCTYPE svg PUBLIC "-//W3C//DTD SVG 1.1//EN" "http://www.w3.org/Graphics/SVG/1.1/DTD/svg11.dtd" [
	<!ENTITY ns_flows "http://ns.adobe.com/Flows/1.0/">
]>
<svg version="1.1"
	 xmlns="http://www.w3.org/2000/svg" xmlns:xlink="http://www.w3.org/1999/xlink" xmlns:a="http://ns.adobe.com/AdobeSVGViewerExtensions/3.0/"
	 x="0px" y="0px" width="59px" height="15px" viewBox="0 0.00879 59 15"
	 overflow="visible" enable-background="new 0 0.00879 59 15" xml:space="preserve">
<defs>
</defs>
<path fill="#231F20" d="M33.1875,11.55762c0,0.93945-0.5,1.47754-1.375,1.47754c-0.51172,0-1.37305-0.19238-1.37305-1.47754V3.53711
	c0-1.33301,0.96094-1.47705,1.37305-1.47705c0.86133,0,1.375,0.55225,1.375,1.47705V11.55762z M31.8125,0.00928
	c-2.17383,0-3.58008,1.46045-3.58008,3.72021v7.63574c0,1.08105,0.31836,2.00098,0.91797,2.65918
	c0.63477,0.69434,1.55469,1.06152,2.66211,1.06152s2.0293-0.36719,2.66211-1.06152c0.60156-0.6582,0.91992-1.57812,0.91992-2.65918
	V3.72949C35.39453,1.46973,33.98828,0.00928,31.8125,0.00928"/>
<polygon fill="#231F20" points="2.25537,8.57324 4.89258,8.57324 4.89258,6.53809 2.25537,6.53809 2.25537,2.07959 6.25439,2.07959 
	5.40576,0.00879 0,0.00879 0,15.08984 5.38965,15.08984 6.25439,12.98926 2.25537,12.98926 "/>
<polygon fill="#231F20" points="46.47266,12.98633 46.47266,8.5166 48.94922,8.5166 48.94727,6.47461 46.47266,6.48193 
	46.47266,2.07666 49.90039,2.07666 50.75586,0 44.19727,0.00439 44.2168,12.9668 45.07812,15.08691 49.97461,15.08691 
	49.97266,12.98633 "/>
<path fill="#231F20" d="M19.57471,5.45898c0,0.96484-0.78271,1.08887-1.18701,1.08887h-1.55176V2.0708h1.55176
	c0.45117,0,1.18701,0.12891,1.18701,1.06641V5.45898z M18.36572,0.00928h-2.8877l-0.89795,2.19531v10.65283l0.91895,2.23438
	l1.33398-0.00488l0.00293-6.52637h1.52979c2.04199,0,3.16748-1.14062,3.16748-3.21143V3.22559
	C21.5332,1.13965,20.40771,0.00928,18.36572,0.00928"/>
<path fill="#231F20" d="M55.83203,5.32812c0,1.00879-1.01562,1.2207-1.51367,1.2207h-1.33008V2.0708h1.82617
	c0.63086,0,1.01758,0.31494,1.01758,1.02197V5.32812z M55.98633,8.04199c0.78711-0.38965,1.99609-1.45312,1.99609-2.65576V3.15918
	c0-2.07227-1.07617-3.15674-3.13477-3.15674l-3.2793-0.00049l-0.85938,2.09424l0.00781,12.99268l2.2793-0.00391l0.00586-6.17773
	h1.00391l2.42188,6.17969h2.4043L55.98633,8.04199z"/>
<path fill="#231F20" d="M41.3125,5.33252c0,1.00879-1.2832,1.2207-1.7793,1.2207h-1.11914V2.0752h1.82617
	c0.63086,0,1.07227,0.31543,1.07227,1.02197V5.33252z M41.40039,8.0293c0.78711-0.39062,2.06055-1.4541,2.06055-2.65625V3.146
	c0-2.07275-1.14062-3.146-3.19727-3.146h-4.12109v15.0957h2.28711l-0.00195-6.2002l1.00781-0.00098l2.44141,6.20703l2.4082-0.00586
	L41.40039,8.0293z"/>
<polygon fill="#231F20" points="11.58105,7.54688 14.67188,0.00928 12.38281,0.00928 10.43652,4.70459 8.49658,0.00439 
	6.20801,0.00439 9.29248,7.54688 6.20361,15.08691 8.49658,15.08301 10.43652,10.39062 12.40039,15.0918 14.68896,15.0918 "/>
<path fill="#231F20" d="M27.66406,12.9668h-3.13672l0.00391-12.95898h-2.25586l-0.00391,15.08203h7.10547
	C28.76953,14.71777,28.03906,14.07324,27.66406,12.9668"/>
</svg>
